<?xml version="1.0" encoding="iso-8859-1"?>
<!-- Generator: Adobe Illustrator 17.1.0, SVG Export Plug-In . SVG Version: 6.00 Build 0)  -->
<!DOCTYPE svg PUBLIC "-//W3C//DTD SVG 1.1//EN" "http://www.w3.org/Graphics/SVG/1.1/DTD/svg11.dtd">
<svg version="1.1" id="Capa_1" xmlns="http://www.w3.org/2000/svg" xmlns:xlink="http://www.w3.org/1999/xlink" x="0px" y="0px"
	 viewBox="0 0 334.966 334.966" style="enable-background:new 0 0 334.966 334.966;" xml:space="preserve" width="50px" height="50px">
<path d="M287.112,280.184c-5.763-1.863-11.207-3.623-15.804-5.347c-6.204-2.326-7.655-3.394-7.976-3.816
	c0.337-0.31,1.403-0.783,2.133-1.106c2.534-1.124,6.004-2.663,6.199-6.164c0.234-4.221-3.748-12.339-40.871-34.007
	c-28.763-16.789-37.888-32.28-48.454-50.218c-5.918-10.047-12.038-20.437-22.159-32.278c-2.814-3.292-6.402-7-10.556-11.293
	c-17.204-17.78-43.202-44.65-45.027-76.8C102.29,18.353,72.418,0,51.944,0l-0.505,0.003C38.221,0.19,29.167,8.839,23.899,16.064
	c-2.447,3.365-6.952,7.625-9.947,9.925c-3.649,2.793-6.52,6.137-8.529,9.935c-0.928,1.734-1.002,3.419-0.208,4.745
	c1.006,1.679,3.227,2.532,5.987,2.208c2.164-0.25,4.145-0.372,6.056-0.372c8.99,0,15.497,2.658,19.338,7.9
	c5.474,7.469,5.451,20.112-0.067,37.575c-15.688,49.652-20.239,86.361-13.914,112.227c8.139,33.301,19.381,53.593,58.244,72.092
	c3.723,1.772,7.853,3.315,12.309,4.698c-2.813,8.571-5.917,17.043-8.701,22.407c-0.209,0.404-0.333,0.88-0.454,1.34
	c-0.051,0.193-0.123,0.468-0.194,0.679c-0.609-0.347-1.778-1.235-2.832-2.036c-1.729-1.314-3.881-2.949-6.163-4.328
	c-4.237-2.56-7.525-3.752-10.346-3.752c-2.164,0-3.752,0.702-5.021,1.389c-0.316,0.171-1.058,0.573-0.872,1.39
	c0.187,0.821,0.946,0.859,1.75,0.898c2.061,0.1,7.414,0.363,12.548,5.818c-2.316-0.067-7.405-1.078-15.532-3.091
	c-0.946-0.234-1.882-0.345-2.783-0.345c-6.728,0-10.058,6.408-11.312,8.815c-0.164,0.315-0.28,0.583-0.349,0.682l-0.452,0.627
	l0.549,1.281h0.636c0.306,0,0.484-0.227,0.959-0.5c7.506-4.305,16.275-5.03,24.988-1.808c2.541,0.939,3.99,2.123,4.786,3.05
	c-0.237,0.181-0.461,0.372-0.681,0.566c-2.252-0.094-4.046-0.139-5.532-0.139c-2.385,0-3.682,0.114-5.184,0.247
	c-1.446,0.127-3.085,0.272-6.121,0.336c-2.174,0.046-4.222,0.381-5.922,0.97c-4.858,1.682-7.161,4.85-7.268,4.999l-3.077,4.486
	l-0.09,0.16c-0.36,0.814-0.392,1.459-0.094,1.917c0.378,0.581,1.126,0.721,1.97,0.187c6.496-4.108,11.776-6.024,16.618-6.024
	c3.119,0,5.727,0.795,8.249,1.567c2.442,0.748,4.968,1.514,7.854,1.514c1.122,0,2.217-0.125,3.35-0.355
	c1.598-0.326,3.095-0.705,4.543-1.047c3.673-0.869,6.846-1.669,10.31-1.669c1.641,0,3.297,0.182,4.997,0.547
	c1.362,0.855,2.148,1.729,2.552,2.353c-2.808-0.129-4.954-0.189-6.687-0.189c-2.385,0-3.682,0.114-5.184,0.247
	c-1.446,0.127-3.085,0.272-6.121,0.336c-2.174,0.046-4.222,0.381-5.922,0.97c-4.858,1.682-7.161,4.85-7.268,4.999l-3.077,4.486
	l-0.09,0.16c-0.36,0.814-0.392,1.459-0.094,1.917c0.378,0.581,1.126,0.721,1.97,0.187c6.496-4.108,11.776-6.024,16.618-6.024
	c3.119,0,5.727,0.795,8.249,1.567c2.442,0.748,4.968,1.514,7.854,1.514c1.122,0,2.217-0.125,3.35-0.355
	c1.598-0.326,3.095-0.705,4.543-1.047c3.673-0.869,6.846-1.669,10.31-1.669c5.895,0,11.964,2.251,19.679,7.521l0.344,0.019h0.309
	l0.639,0.192l0.274-0.363c0.32-0.657,0.32-0.657-2.122-3.779c-2.821-3.607-10.316-13.188-9.835-15.774
	c1.309-7.024,4.622-18.541,7.997-29.46c6.568,0.91,13.393,1.785,20.45,2.685c16.189,2.065,34.539,4.407,53.473,7.71
	c8.786,1.534,18.044,3.249,26.997,4.907c28.875,5.35,58.734,10.881,76.092,10.881c7.998,0,12.991-1.161,15.262-3.549
	c1.027-1.08,1.509-2.398,1.433-3.918C329.772,293.974,307.108,286.647,287.112,280.184z M110.015,310.745
	c-0.051,0.193-0.123,0.468-0.194,0.679c-0.609-0.347-1.778-1.235-2.832-2.036c-1.232-0.936-2.685-2.034-4.24-3.088
	c-0.159-0.506-0.223-0.932-0.164-1.251c1.094-5.869,3.587-14.877,6.346-24.05c3.677,0.766,7.517,1.471,11.483,2.139
	c-3.12,9.816-6.744,20.096-9.946,26.267C110.259,309.809,110.135,310.285,110.015,310.745z"/>
<g>
</g>
<g>
</g>
<g>
</g>
<g>
</g>
<g>
</g>
<g>
</g>
<g>
</g>
<g>
</g>
<g>
</g>
<g>
</g>
<g>
</g>
<g>
</g>
<g>
</g>
<g>
</g>
<g>
</g>
</svg>
